<svg xmlns="http://www.w3.org/2000/svg" width="1200" height="480" viewBox="0 0 1200 480" role="img" aria-label="Roadmap overview">
<title>Roadmap overview</title>
<defs><linearGradient id="track" x1="0" x2="1"><stop offset="0" stop-color="#22c55e"/><stop offset="0.3" stop-color="#8b5cf6"/><stop offset="0.7" stop-color="#a1a1aa" stop-opacity="0.6"/><stop offset="1" stop-color="#a1a1aa" stop-opacity="0.3"/></linearGradient></defs>
<rect x="139.2" y="42" width="921.5999999999999" height="4" rx="2" fill="url(#track)"/>
<circle cx="139.2" cy="44" r="10" fill="#22c55e" stroke="#22c55e" stroke-width="2.5"/>
<path d="M134.7 44 l3 3 l6 -6.5" fill="none" stroke="#fff" stroke-width="2.2" stroke-linecap="round" stroke-linejoin="round"/>
<text x="139.2" y="86" text-anchor="middle" font-family="Inter, 'Segoe UI', system-ui, -apple-system, Helvetica, Arial, sans-serif" font-size="12.5" font-weight="700" letter-spacing="1.4" fill="#0f0f11">SHIPPED</text>
<text x="139.2" y="104" text-anchor="middle" font-family="Inter, 'Segoe UI', system-ui, -apple-system, Helvetica, Arial, sans-serif" font-size="11.5" fill="#71717a">6</text>
<line x1="139.2" y1="114" x2="139.2" y2="122" stroke="#22c55e" stroke-width="1.5" stroke-dasharray="2 4" stroke-opacity="0.8"/>
<g><rect x="32" y="122" width="214.4" height="56" rx="12" fill="#ffffff" stroke="rgba(15,15,17,0.12)"/><rect x="32" y="132" width="3.5" height="36" rx="1.75" fill="#22c55e"/><text x="48" y="148" font-family="Inter, 'Segoe UI', system-ui, -apple-system, Helvetica, Arial, sans-serif" font-size="13" font-weight="600" fill="#0f0f11">Mark payments as already</text><text x="48" y="165" font-family="Inter, 'Segoe UI', system-ui, -apple-system, Helvetica, Arial, sans-serif" font-size="13" font-weight="600" fill="#0f0f11">paid</text></g>
<g><rect x="32" y="188" width="214.4" height="56" rx="12" fill="#ffffff" stroke="rgba(15,15,17,0.12)"/><rect x="32" y="198" width="3.5" height="36" rx="1.75" fill="#22c55e"/><text x="48" y="214" font-family="Inter, 'Segoe UI', system-ui, -apple-system, Helvetica, Arial, sans-serif" font-size="13" font-weight="600" fill="#0f0f11">End-to-end encrypted server</text><text x="48" y="231" font-family="Inter, 'Segoe UI', system-ui, -apple-system, Helvetica, Arial, sans-serif" font-size="13" font-weight="600" fill="#0f0f11">accounts</text></g>
<g><rect x="32" y="254" width="214.4" height="39" rx="12" fill="#ffffff" stroke="rgba(15,15,17,0.12)"/><rect x="32" y="264" width="3.5" height="19" rx="1.75" fill="#22c55e"/><text x="48" y="280" font-family="Inter, 'Segoe UI', system-ui, -apple-system, Helvetica, Arial, sans-serif" font-size="13" font-weight="600" fill="#0f0f11">Self-hosting with Docker</text></g>
<g><rect x="32" y="303" width="214.4" height="39" rx="12" fill="#ffffff" stroke="rgba(15,15,17,0.12)"/><rect x="32" y="313" width="3.5" height="19" rx="1.75" fill="#22c55e"/><text x="48" y="329" font-family="Inter, 'Segoe UI', system-ui, -apple-system, Helvetica, Arial, sans-serif" font-size="13" font-weight="600" fill="#0f0f11">Installable web app (PWA)</text></g>
<g><rect x="32" y="352" width="214.4" height="39" rx="12" fill="#ffffff" stroke="rgba(15,15,17,0.12)"/><rect x="32" y="362" width="3.5" height="19" rx="1.75" fill="#22c55e"/><text x="48" y="378" font-family="Inter, 'Segoe UI', system-ui, -apple-system, Helvetica, Arial, sans-serif" font-size="13" font-weight="600" fill="#0f0f11">Installments with interest</text></g>
<g><rect x="32" y="401" width="214.4" height="39" rx="12" fill="#ffffff" stroke="rgba(15,15,17,0.12)"/><rect x="32" y="411" width="3.5" height="19" rx="1.75" fill="#22c55e"/><text x="48" y="427" font-family="Inter, 'Segoe UI', system-ui, -apple-system, Helvetica, Arial, sans-serif" font-size="13" font-weight="600" fill="#0f0f11">Bank statement import</text></g>
<circle cx="369.6" cy="44" r="17" fill="#8b5cf6" fill-opacity="0.18"/>
<circle cx="369.6" cy="44" r="10" fill="#8b5cf6" stroke="#8b5cf6" stroke-width="2.5"/>
<text x="369.6" y="86" text-anchor="middle" font-family="Inter, 'Segoe UI', system-ui, -apple-system, Helvetica, Arial, sans-serif" font-size="12.5" font-weight="700" letter-spacing="1.4" fill="#0f0f11">IN PROGRESS</text>
<text x="369.6" y="104" text-anchor="middle" font-family="Inter, 'Segoe UI', system-ui, -apple-system, Helvetica, Arial, sans-serif" font-size="11.5" fill="#71717a">2</text>
<line x1="369.6" y1="114" x2="369.6" y2="122" stroke="#8b5cf6" stroke-width="1.5" stroke-dasharray="2 4" stroke-opacity="0.8"/>
<g><rect x="262.4" y="122" width="214.4" height="39" rx="12" fill="#ffffff" stroke="rgba(15,15,17,0.12)"/><rect x="262.4" y="132" width="3.5" height="19" rx="1.75" fill="#8b5cf6"/><text x="278.4" y="148" font-family="Inter, 'Segoe UI', system-ui, -apple-system, Helvetica, Arial, sans-serif" font-size="13" font-weight="600" fill="#0f0f11">Native Android app</text></g>
<g><rect x="262.4" y="171" width="214.4" height="56" rx="12" fill="#ffffff" stroke="rgba(15,15,17,0.12)"/><rect x="262.4" y="181" width="3.5" height="36" rx="1.75" fill="#8b5cf6"/><text x="278.4" y="197" font-family="Inter, 'Segoe UI', system-ui, -apple-system, Helvetica, Arial, sans-serif" font-size="13" font-weight="600" fill="#0f0f11">Website, live demo &amp;</text><text x="278.4" y="214" font-family="Inter, 'Segoe UI', system-ui, -apple-system, Helvetica, Arial, sans-serif" font-size="13" font-weight="600" fill="#0f0f11">newsletter</text></g>
<circle cx="600" cy="44" r="10" fill="#ffffff" stroke="#a78bfa" stroke-width="2.5"/>
<text x="600" y="86" text-anchor="middle" font-family="Inter, 'Segoe UI', system-ui, -apple-system, Helvetica, Arial, sans-serif" font-size="12.5" font-weight="700" letter-spacing="1.4" fill="#0f0f11">NEXT</text>
<text x="600" y="104" text-anchor="middle" font-family="Inter, 'Segoe UI', system-ui, -apple-system, Helvetica, Arial, sans-serif" font-size="11.5" fill="#71717a">6</text>
<line x1="600" y1="114" x2="600" y2="122" stroke="#a78bfa" stroke-width="1.5" stroke-dasharray="2 4" stroke-opacity="0.8"/>
<g><rect x="492.8" y="122" width="214.4" height="39" rx="12" fill="#ffffff" stroke="rgba(15,15,17,0.12)"/><rect x="492.8" y="132" width="3.5" height="19" rx="1.75" fill="#a78bfa"/><text x="508.8" y="148" font-family="Inter, 'Segoe UI', system-ui, -apple-system, Helvetica, Arial, sans-serif" font-size="13" font-weight="600" fill="#0f0f11">Passkeys</text></g>
<g><rect x="492.8" y="171" width="214.4" height="39" rx="12" fill="#ffffff" stroke="rgba(15,15,17,0.12)"/><rect x="492.8" y="181" width="3.5" height="19" rx="1.75" fill="#a78bfa"/><text x="508.8" y="197" font-family="Inter, 'Segoe UI', system-ui, -apple-system, Helvetica, Arial, sans-serif" font-size="13" font-weight="600" fill="#0f0f11">Encrypted backups</text></g>
<g><rect x="492.8" y="220" width="214.4" height="56" rx="12" fill="#ffffff" stroke="rgba(15,15,17,0.12)"/><rect x="492.8" y="230" width="3.5" height="36" rx="1.75" fill="#a78bfa"/><text x="508.8" y="246" font-family="Inter, 'Segoe UI', system-ui, -apple-system, Helvetica, Arial, sans-serif" font-size="13" font-weight="600" fill="#0f0f11">Price history &amp; increase</text><text x="508.8" y="263" font-family="Inter, 'Segoe UI', system-ui, -apple-system, Helvetica, Arial, sans-serif" font-size="13" font-weight="600" fill="#0f0f11">alerts</text></g>
<g><rect x="492.8" y="286" width="214.4" height="39" rx="12" fill="#ffffff" stroke="rgba(15,15,17,0.12)"/><rect x="492.8" y="296" width="3.5" height="19" rx="1.75" fill="#a78bfa"/><text x="508.8" y="312" font-family="Inter, 'Segoe UI', system-ui, -apple-system, Helvetica, Arial, sans-serif" font-size="13" font-weight="600" fill="#0f0f11">Cancellation assistant</text></g>
<g><rect x="492.8" y="335" width="214.4" height="39" rx="12" fill="#ffffff" stroke="rgba(15,15,17,0.12)"/><rect x="492.8" y="345" width="3.5" height="19" rx="1.75" fill="#a78bfa"/><text x="508.8" y="361" font-family="Inter, 'Segoe UI', system-ui, -apple-system, Helvetica, Arial, sans-serif" font-size="13" font-weight="600" fill="#0f0f11">Device management</text></g>
<g><rect x="492.8" y="384" width="214.4" height="39" rx="12" fill="#ffffff" stroke="rgba(15,15,17,0.12)"/><rect x="492.8" y="394" width="3.5" height="19" rx="1.75" fill="#a78bfa"/><text x="508.8" y="410" font-family="Inter, 'Segoe UI', system-ui, -apple-system, Helvetica, Arial, sans-serif" font-size="13" font-weight="600" fill="#0f0f11">English interface</text></g>
<circle cx="830.4000000000001" cy="44" r="10" fill="#ffffff" stroke="#a1a1aa" stroke-width="2.5"/>
<text x="830.4000000000001" y="86" text-anchor="middle" font-family="Inter, 'Segoe UI', system-ui, -apple-system, Helvetica, Arial, sans-serif" font-size="12.5" font-weight="700" letter-spacing="1.4" fill="#0f0f11">LATER</text>
<text x="830.4000000000001" y="104" text-anchor="middle" font-family="Inter, 'Segoe UI', system-ui, -apple-system, Helvetica, Arial, sans-serif" font-size="11.5" fill="#71717a">6</text>
<line x1="830.4000000000001" y1="114" x2="830.4000000000001" y2="122" stroke="#a1a1aa" stroke-width="1.5" stroke-dasharray="2 4" stroke-opacity="0.8"/>
<g><rect x="723.2" y="122" width="214.4" height="39" rx="12" fill="#ffffff" stroke="rgba(15,15,17,0.12)"/><rect x="723.2" y="132" width="3.5" height="19" rx="1.75" fill="#a1a1aa"/><text x="739.2" y="148" font-family="Inter, 'Segoe UI', system-ui, -apple-system, Helvetica, Arial, sans-serif" font-size="13" font-weight="600" fill="#0f0f11">Shared household</text></g>
<g><rect x="723.2" y="171" width="214.4" height="56" rx="12" fill="#ffffff" stroke="rgba(15,15,17,0.12)"/><rect x="723.2" y="181" width="3.5" height="36" rx="1.75" fill="#a1a1aa"/><text x="739.2" y="197" font-family="Inter, 'Segoe UI', system-ui, -apple-system, Helvetica, Arial, sans-serif" font-size="13" font-weight="600" fill="#0f0f11">Push reminders for the web</text><text x="739.2" y="214" font-family="Inter, 'Segoe UI', system-ui, -apple-system, Helvetica, Arial, sans-serif" font-size="13" font-weight="600" fill="#0f0f11">app</text></g>
<g><rect x="723.2" y="237" width="214.4" height="39" rx="12" fill="#ffffff" stroke="rgba(15,15,17,0.12)"/><rect x="723.2" y="247" width="3.5" height="19" rx="1.75" fill="#a1a1aa"/><text x="739.2" y="263" font-family="Inter, 'Segoe UI', system-ui, -apple-system, Helvetica, Arial, sans-serif" font-size="13" font-weight="600" fill="#0f0f11">Contracts &amp; receipts</text></g>
<g><rect x="723.2" y="286" width="214.4" height="39" rx="12" fill="#ffffff" stroke="rgba(15,15,17,0.12)"/><rect x="723.2" y="296" width="3.5" height="19" rx="1.75" fill="#a1a1aa"/><text x="739.2" y="312" font-family="Inter, 'Segoe UI', system-ui, -apple-system, Helvetica, Arial, sans-serif" font-size="13" font-weight="600" fill="#0f0f11">Budgets &amp; yearly report</text></g>
<g><rect x="723.2" y="335" width="214.4" height="39" rx="12" fill="#ffffff" stroke="rgba(15,15,17,0.12)"/><rect x="723.2" y="345" width="3.5" height="19" rx="1.75" fill="#a1a1aa"/><text x="739.2" y="361" font-family="Inter, 'Segoe UI', system-ui, -apple-system, Helvetica, Arial, sans-serif" font-size="13" font-weight="600" fill="#0f0f11">More import formats</text></g>
<g><rect x="723.2" y="384" width="214.4" height="39" rx="12" fill="#ffffff" stroke="rgba(15,15,17,0.12)"/><rect x="723.2" y="394" width="3.5" height="19" rx="1.75" fill="#a1a1aa"/><text x="739.2" y="410" font-family="Inter, 'Segoe UI', system-ui, -apple-system, Helvetica, Arial, sans-serif" font-size="13" font-weight="600" fill="#0f0f11">Admin web interface</text></g>
<circle cx="1060.8" cy="44" r="10" fill="#ffffff" stroke="#a1a1aa" stroke-width="2.5" stroke-dasharray="3 3"/>
<text x="1060.8" y="86" text-anchor="middle" font-family="Inter, 'Segoe UI', system-ui, -apple-system, Helvetica, Arial, sans-serif" font-size="12.5" font-weight="700" letter-spacing="1.4" fill="#0f0f11">EXPLORING</text>
<text x="1060.8" y="104" text-anchor="middle" font-family="Inter, 'Segoe UI', system-ui, -apple-system, Helvetica, Arial, sans-serif" font-size="11.5" fill="#71717a">3</text>
<line x1="1060.8" y1="114" x2="1060.8" y2="122" stroke="#a1a1aa" stroke-width="1.5" stroke-dasharray="2 4" stroke-opacity="0.8"/>
<g><rect x="953.6" y="122" width="214.4" height="39" rx="12" fill="#ffffff" stroke="#a1a1aa" stroke-dasharray="4 4"/><rect x="953.6" y="132" width="3.5" height="19" rx="1.75" fill="#a1a1aa"/><text x="969.6" y="148" font-family="Inter, 'Segoe UI', system-ui, -apple-system, Helvetica, Arial, sans-serif" font-size="13" font-weight="600" fill="#0f0f11">iOS app</text></g>
<g><rect x="953.6" y="171" width="214.4" height="39" rx="12" fill="#ffffff" stroke="#a1a1aa" stroke-dasharray="4 4"/><rect x="953.6" y="181" width="3.5" height="19" rx="1.75" fill="#a1a1aa"/><text x="969.6" y="197" font-family="Inter, 'Segoe UI', system-ui, -apple-system, Helvetica, Arial, sans-serif" font-size="13" font-weight="600" fill="#0f0f11">Browser extension</text></g>
<g><rect x="953.6" y="220" width="214.4" height="39" rx="12" fill="#ffffff" stroke="#a1a1aa" stroke-dasharray="4 4"/><rect x="953.6" y="230" width="3.5" height="19" rx="1.75" fill="#a1a1aa"/><text x="969.6" y="246" font-family="Inter, 'Segoe UI', system-ui, -apple-system, Helvetica, Arial, sans-serif" font-size="13" font-weight="600" fill="#0f0f11">Calendar feed</text></g>
<text x="1176" y="470" text-anchor="end" font-family="Inter, 'Segoe UI', system-ui, -apple-system, Helvetica, Arial, sans-serif" font-size="11" fill="#71717a">ABOmination · Updated 2026-10-03</text>
</svg>
